<?xml version="1.0" encoding="UTF-8"?>
<svg version="1.1" xmlns="http://www.w3.org/2000/svg" width="2000" height="636">
<path d="M0 0 C660 0 1320 0 2000 0 C2000 209.88 2000 419.76 2000 636 C1340 636 680 636 0 636 C0 426.12 0 216.24 0 0 Z " fill="#FED228" transform="translate(0,0)"/>
<path d="M0 0 C2.70403528 0.78274705 5.38807319 1.45638835 8.13671875 2.05664062 C18.94579021 4.52643534 18.94579021 4.52643534 22.05078125 8.00976562 C23.16671611 10.66225695 23.71032211 13.08735605 24.19140625 15.92382812 C24.46597656 16.98730469 24.74054688 18.05078125 25.0234375 19.14648438 C31.26628347 43.51923919 30.71151721 72.34434097 23.04248047 96.23583984 C22.17277152 98.98268309 21.39211166 101.74222685 20.6328125 104.52148438 C15.39690122 123.64651733 8.96952728 142.08868929 0.2109375 159.91992188 C-1.75633439 164.06689408 -2.32571782 167.3558988 -1.80859375 171.92382812 C-1.08173787 174.56007453 -1.08173787 174.56007453 1.19140625 175.92382812 C7.31392179 176.00370439 12.99755834 174.22530214 18.69140625 172.17382812 C20.26994211 171.62568192 21.84939458 171.08016923 23.4296875 170.53710938 C24.22197754 170.26463379 25.01426758 169.9921582 25.83056641 169.71142578 C29.48423064 168.49253014 33.17668366 167.42172517 36.87890625 166.36132812 C43.70730919 164.40456763 50.41582238 162.19633057 57.1171875 159.84179688 C60.19140625 158.92382812 60.19140625 158.92382812 64.19140625 158.92382812 C66.6800634 170.2683982 68.92176831 181.61305137 70.70800781 193.09204102 C71.58930539 198.47371204 72.79831056 203.0156092 75.19140625 207.92382812 C80.00217487 208.40554162 80.00217487 208.40554162 84.21484375 206.44335938 C86.90658309 203.01218967 88.14709227 199.45532836 89.56640625 195.36132812 C89.86458252 194.52649902 90.16275879 193.69166992 90.4699707 192.83154297 C93.3706371 184.61798801 95.99985783 176.32127307 98.54785156 167.99267578 C99.10050801 166.21604044 99.68577688 164.44960779 100.27734375 162.68554688 C102.60440205 155.65783082 104.22892306 148.53465371 105.75390625 141.29882812 C106.05083374 139.89661011 106.05083374 139.89661011 106.35375977 138.46606445 C107.00275112 135.29128336 107.60335033 132.1104764 108.19140625 128.92382812 C108.31929535 128.25519745 108.44718445 127.58656677 108.57894897 126.89767456 C111.10476169 113.4953606 111.72255333 100.35253068 111.87890625 86.73632812 C111.91218987 84.70310464 111.94668904 82.66990067 111.98242188 80.63671875 C112.06603234 75.73253274 112.13341918 70.82838124 112.19140625 65.92382812 C113.30049002 66.86500675 114.40821581 67.80778573 115.51538086 68.7512207 C116.44090004 69.53847282 116.44090004 69.53847282 117.38511658 70.34162903 C139.14647006 89.40324154 157.98257592 118.72889187 167.13671875 146.06054688 C168.01203504 148.4368685 168.98498374 150.65889862 170.05078125 152.95117188 C172.65248931 158.73922123 174.47272239 164.73500098 176.31640625 170.79882812 C176.66316406 171.90613281 177.00992187 173.0134375 177.3671875 174.15429688 C179.21925672 180.19303596 180.72239229 186.14032821 181.75390625 192.37182617 C182.17010663 194.7995843 182.68498618 197.17831376 183.24609375 199.57617188 C192.51873834 240.57722953 186.46030802 288.96867441 171.90771484 327.98242188 C171.18450992 329.94251921 170.50694096 331.91406539 169.8359375 333.89257812 C161.63367259 357.57086949 147.62807181 379.34588153 132.19140625 398.92382812 C131.76553223 399.4668457 131.3396582 400.00986328 130.90087891 400.56933594 C126.7960916 405.77869016 122.57765757 410.71287502 117.80078125 415.31445312 C116.17174305 416.94349132 114.71738511 418.64562263 113.25390625 420.42382812 C109.91908882 424.36973775 106.13339738 427.5998059 102.19140625 430.92382812 C101.26585937 431.73722656 100.3403125 432.550625 99.38671875 433.38867188 C85.26224896 445.73602492 69.93278444 455.60006532 53.51953125 464.63427734 C51.52102954 465.74124945 49.54058126 466.87195759 47.56640625 468.02148438 C39.85940058 472.40484385 31.96665201 475.30066966 23.58911133 478.07592773 C20.72536542 479.08863413 17.92631832 480.23674105 15.109375 481.37304688 C7.89084258 484.16731749 0.55406631 485.96743527 -6.99609375 487.61132812 C-7.67224731 487.76168518 -8.34840088 487.91204224 -9.04504395 488.06695557 C-19.59564675 490.40693499 -30.0207557 492.12870859 -40.80859375 492.92382812 C-41.57768066 493.00632812 -42.34676758 493.08882812 -43.13916016 493.17382812 C-51.64649994 494.06883287 -60.13896272 494.16504392 -68.68359375 494.17382812 C-69.4559436 494.17516754 -70.22829346 494.17650696 -71.02404785 494.17788696 C-83.51920942 494.17320071 -95.52430024 493.32691153 -107.80859375 490.92382812 C-109.16509875 490.68015608 -110.52186158 490.437914 -111.87890625 490.19726562 C-136.05212279 485.68029908 -136.05212279 485.68029908 -139.80859375 481.92382812 C-139.32205322 481.6732666 -138.8355127 481.42270508 -138.33422852 481.16455078 C-95.15183702 458.85761082 -55.58298712 429.88638747 -25.03515625 391.67382812 C-23.04790599 389.21939973 -21.00215081 386.82870042 -18.92993164 384.44604492 C-5.26544274 368.6553742 6.73468214 350.98930676 17.19140625 332.92382812 C21.52317739 334.55971858 25.62708732 336.58674666 29.75390625 338.67382812 C30.45773437 339.02509766 31.1615625 339.37636719 31.88671875 339.73828125 C35.16062822 341.37523599 38.40577435 343.0399137 41.625 344.78320312 C47.41977631 347.883593 51.57503473 350.0065071 58.19140625 348.92382812 C60.18148342 347.41980667 61.0691245 346.54575574 61.5546875 344.07617188 C61.25962539 331.20692442 59.32559826 318.44632734 57.37011719 305.74316406 C55.19584869 291.55865053 53.32297385 277.3157598 51.92553711 263.03271484 C51.54786791 259.37373791 50.98804102 255.83067178 50.21875 252.23242188 C48.95224428 246.13324302 48.42028788 239.99211556 47.81640625 233.79882812 C46.56976947 222.07415625 46.56976947 222.07415625 44.44140625 210.48632812 C44.1784375 209.29136719 43.91546875 208.09640625 43.64453125 206.86523438 C41.56034597 202.64643999 39.4806816 201.81018686 35.19140625 199.92382812 C26.38553302 198.44105222 16.30872968 203.86280725 8.19140625 206.92382812 C5.0472386 208.09500428 1.90076758 209.25991168 -1.24609375 210.42382812 C-2.04233154 210.71926514 -2.83856934 211.01470215 -3.65893555 211.3190918 C-9.65480806 213.53180368 -15.69137088 215.58910821 -21.76196289 217.58618164 C-27.92419983 219.61671435 -34.05708756 221.72552395 -40.18359375 223.86132812 C-41.15546631 224.20010986 -42.12733887 224.5388916 -43.12866211 224.88793945 C-47.78307946 226.51274438 -52.43542658 228.14334639 -57.0859375 229.77929688 C-57.92519775 230.07408936 -58.76445801 230.36888184 -59.62915039 230.67260742 C-61.27610195 231.2517109 -62.92243663 231.8325721 -64.56811523 232.4152832 C-68.65208304 233.85350893 -72.74409841 235.23211266 -76.87890625 236.51757812 C-78.10613403 236.90502197 -78.10613403 236.90502197 -79.3581543 237.30029297 C-80.89716444 237.7827186 -82.44013108 238.25278333 -83.98754883 238.70751953 C-88.74527534 240.20762876 -91.46755812 242.05659523 -94.80859375 245.92382812 C-95.13859375 246.25382813 -95.46859375 246.58382812 -95.80859375 246.92382812 C-96.1256948 249.31148705 -96.1256948 249.31148705 -96.18359375 252.11132812 C-96.23257813 253.05363281 -96.2815625 253.9959375 -96.33203125 254.96679688 C-95.3921631 260.27635052 -92.36173529 262.80348466 -88.16357422 265.83178711 C-83.88102351 268.68488352 -79.53576379 271.43244193 -75.18359375 274.17773438 C-74.1265625 274.85964844 -73.06953125 275.5415625 -71.98046875 276.24414062 C-71.01206055 276.85531738 -70.04365234 277.46649414 -69.04589844 278.09619141 C-66.80859375 279.92382812 -66.80859375 279.92382812 -65.89038086 281.95507812 C-65.74759981 285.39205249 -67.83874658 287.99619869 -69.62109375 290.79882812 C-70.03198242 291.46084229 -70.44287109 292.12285645 -70.86621094 292.80493164 C-78.49190101 304.93762968 -87.20481484 316.09167919 -96.32910156 327.12402344 C-97.61535788 328.68875637 -98.88175836 330.26977036 -100.14453125 331.85351562 C-106.0445006 339.24492705 -112.46231079 346.0926029 -118.95605469 352.95800781 C-120.81468994 354.93029709 -122.66122969 356.91319041 -124.50390625 358.90039062 C-152.63751963 389.24048796 -185.3616642 416.10263843 -226.80859375 424.92382812 C-227.84757812 425.18292969 -228.8865625 425.44203125 -229.95703125 425.70898438 C-232.84841365 426.25567432 -234.91885807 426.49350575 -237.80859375 425.92382812 C-241.4393971 423.4214387 -244.04652637 420.33391901 -246.80859375 416.92382812 C-247.89036268 415.73490284 -248.97363187 414.54734038 -250.05859375 413.36132812 C-251.31628551 411.88869597 -252.56486837 410.40827455 -253.80859375 408.92382812 C-254.26218262 408.38935059 -254.71577148 407.85487305 -255.18310547 407.30419922 C-272.58050811 386.73756694 -285.64964488 364.35881752 -296.80859375 339.92382812 C-297.32341309 338.83158936 -297.32341309 338.83158936 -297.84863281 337.71728516 C-300.41694767 332.16400683 -302.26014334 326.55304016 -303.93359375 320.67382812 C-305.66235175 314.45705466 -305.66235175 314.45705466 -307.8671875 308.40429688 C-310.34559043 301.87406509 -311.10769508 294.62627186 -312.30615234 287.77050781 C-312.6203401 285.99041585 -312.94455345 284.21203091 -313.28369141 282.43652344 C-317.97310225 257.67358902 -318.29810677 229.147261 -313.30029297 204.40576172 C-312.75124585 201.63435508 -312.2817161 198.85435815 -311.8125 196.06835938 C-307.61016917 172.1618497 -299.82822755 148.8171597 -288.43359375 127.36132812 C-287.94882568 126.44512695 -287.46405762 125.52892578 -286.96459961 124.58496094 C-283.5311686 118.15421734 -279.95341565 111.92667364 -275.80859375 105.92382812 C-275.38497559 105.30088867 -274.96135742 104.67794922 -274.52490234 104.03613281 C-266.32988178 92.00927244 -257.731745 80.45011518 -247.21484375 70.33007812 C-245.63888371 68.8130654 -245.63888371 68.8130654 -243.87109375 66.42382812 C-241.50015591 63.54996408 -238.88206651 61.2686813 -236.05078125 58.85742188 C-233.74794837 56.87152941 -231.53411952 54.80824016 -229.30859375 52.73632812 C-210.42644406 35.77975535 -187.62164879 20.71503895 -163.71875 12.00195312 C-161.20587556 11.07100904 -158.79994436 10.05102951 -156.37109375 8.92382812 C-109.1882748 -12.32123863 -49.32073425 -14.66366735 0 0 Z " fill="#FEFEFE" transform="translate(426.80859375,73.076171875)"/>
<path d="M0 0 C0.99164154 -0.0038269 1.98328308 -0.00765381 3.00497437 -0.01159668 C5.10472629 -0.01431793 7.204512 -0.00694191 9.30419922 0.00976562 C12.49134747 0.03103584 15.67620629 0.01004139 18.86328125 -0.015625 C20.90885909 -0.0129791 22.95443551 -0.00784873 25 0 C25.94203278 -0.00809692 26.88406555 -0.01619385 27.85464478 -0.02453613 C37.12054246 0.1042326 44.6925807 2.67619111 51.328125 9.26171875 C55.81493131 15.74638159 57.80163847 23.22656286 59.7109375 30.78125 C61.68699917 38.3181682 63.87269958 45.72284651 66.3984375 53.09375 C69.36079025 61.75936182 71.95088898 70.48789172 74.421875 79.3046875 C76.35703683 86.20339696 78.43283258 93.05912406 80.50390625 99.91796875 C80.72868652 100.6661084 80.9534668 101.41424805 81.18505859 102.18505859 C81.69364467 103.8577185 82.21342966 105.52699042 82.74072266 107.19384766 C83.01577637 108.07476074 83.29083008 108.95567383 83.57421875 109.86328125 C83.82727783 110.66096924 84.08033691 111.45865723 84.34106445 112.28051758 C84.8984375 114.53125 84.8984375 114.53125 84.8984375 118.53125 C85.5584375 118.53125 86.2184375 118.53125 86.8984375 118.53125 C87.08019531 117.53544922 87.08019531 117.53544922 87.265625 116.51953125 C87.43320313 115.63652344 87.60078125 114.75351562 87.7734375 113.84375 C87.93585938 112.97363281 88.09828125 112.10351562 88.265625 111.20703125 C88.8984375 108.53125 88.8984375 108.53125 89.85107422 106.20849609 C90.91322047 103.4934621 91.62115386 100.85571245 92.2890625 98.01953125 C93.87325875 91.52095177 95.72748618 85.12474186 97.6484375 78.71875 C97.99696777 77.54876465 98.34549805 76.3787793 98.70458984 75.17333984 C101.22825942 66.71876065 103.79728717 58.27831723 106.38696289 49.84375 C108.63255654 42.49711037 110.75233738 35.11813603 112.77001953 27.70556641 C118.03634436 8.78126753 118.03634436 8.78126753 126.3984375 2.71875 C131.82798466 0.1397151 137.40055244 0.35698207 143.29296875 0.328125 C144.19915451 0.32242493 145.10534027 0.31672485 146.03898621 0.31085205 C147.95281821 0.30142639 149.86666626 0.29487777 151.78051758 0.29101562 C154.69055854 0.28131791 157.59989041 0.25027467 160.50976562 0.21875 C162.37499584 0.21221823 164.24023106 0.20696844 166.10546875 0.203125 C166.96719193 0.1907782 167.8289151 0.1784314 168.7167511 0.16571045 C175.51503569 0.19046668 180.64658183 1.64063624 186.5859375 5.09375 C192.59096413 11.42337267 194.96320702 20.23308218 197.2109375 28.46875 C197.81169953 30.59658033 198.41329361 32.72417588 199.015625 34.8515625 C199.47727051 36.49753418 199.47727051 36.49753418 199.94824219 38.17675781 C201.52624454 43.74760886 203.18302042 49.29475769 204.8359375 54.84375 C205.50666353 57.10412124 206.17723527 59.36453826 206.84765625 61.625 C207.88719729 65.12640178 208.92709183 68.62769819 209.96728516 72.12890625 C220.55949951 107.78567504 220.55949951 107.78567504 222.8984375 117.53125 C223.5584375 117.53125 224.2184375 117.53125 224.8984375 117.53125 C225.00800781 116.55414063 225.11757812 115.57703125 225.23046875 114.5703125 C225.86134714 110.17728497 227.1902654 106.10784598 228.5859375 101.90625 C230.84361665 94.94067604 232.96943784 87.95259678 234.9609375 80.90625 C235.21061279 80.02453125 235.46028809 79.1428125 235.7175293 78.234375 C236.2105582 76.49226438 236.70332114 74.75007847 237.19580078 73.0078125 C240.1932286 62.44286887 243.37039378 51.94637343 246.73828125 41.49365234 C248.31838057 36.53853418 249.66363242 31.58319112 250.8984375 26.53125 C253.35508671 17.19799664 256.66251092 9.38583016 264.67578125 3.65234375 C271.07358029 0.42533439 277.21753277 0.21209716 284.25 0.1953125 C285.22705902 0.1886557 286.20411804 0.1819989 287.21078491 0.17514038 C289.26648079 0.1650571 291.32220911 0.16032201 293.37792969 0.16064453 C296.52072635 0.15625379 299.6621372 0.11984006 302.8046875 0.08203125 C304.80728689 0.07616569 306.80989291 0.07219455 308.8125 0.0703125 C309.74905426 0.05594147 310.68560852 0.04157043 311.65054321 0.02676392 C315.85557317 0.05623516 318.29168733 0.18102144 321.99365234 2.31787109 C324.39684453 5.11040383 324.53417669 7.20936742 324.3125 10.83203125 C323.5565171 15.76018394 322.0892586 20.44376165 320.609375 25.19628906 C319.76693824 27.96313837 318.97218493 30.74187578 318.1796875 33.5234375 C317.87619385 34.58425537 317.5727002 35.64507324 317.26000977 36.73803711 C316.65436412 38.85547671 316.05061642 40.9734603 315.44897461 43.09204102 C313.04686245 51.39830269 313.04686245 51.39830269 311.296875 55.359375 C309.91244826 58.49947141 308.97152686 61.53188843 308.0859375 64.84375 C306.58528164 70.23478539 304.94090731 75.54308423 303.1484375 80.84375 C300.66475145 88.19789552 298.26018274 95.57451136 295.8984375 102.96875 C295.38567261 104.57375366 295.38567261 104.57375366 294.86254883 106.21118164 C293.08161479 111.79546632 291.31411189 117.38376948 289.55932617 122.97631836 C287.03763616 131.01117336 284.40906808 139.00292113 281.71679688 146.98217773 C279.54537451 153.46865158 277.50807941 159.99082019 275.50463867 166.53100586 C263.79338497 204.73753375 263.79338497 204.73753375 254.75927734 209.70825195 C246.57947492 213.02607584 238.81662324 213.11191614 230.12719727 212.99780273 C227.70455035 212.9686732 225.28407793 212.97726541 222.86132812 212.99023438 C221.29686453 212.98399954 219.73240772 212.97561059 218.16796875 212.96484375 C217.45631058 212.96777939 216.7446524 212.97071503 216.01142883 212.97373962 C208.54011256 212.83531984 202.01137305 210.50203475 196.48828125 205.3671875 C190.11796218 198.01079938 187.72696062 187.64947599 184.8984375 178.53125 C184.629104 177.665 184.35977051 176.79875 184.08227539 175.90625 C181.96949278 169.07464338 179.89996748 162.23044589 177.83984375 155.3828125 C177.42991432 154.0212075 177.42991432 154.0212075 177.01170349 152.63209534 C174.7173312 145.01084661 174.7173312 145.01084661 173.61010742 141.3203125 C170.21063713 129.99332062 166.68879094 118.7334291 162.8984375 107.53125 C161.61028333 103.62006062 160.3438776 99.70224652 159.0859375 95.78125 C158.61897461 94.34652344 158.61897461 94.34652344 158.14257812 92.8828125 C157.84931641 91.96757812 157.55605469 91.05234375 157.25390625 90.109375 C156.86174927 88.89362793 156.86174927 88.89362793 156.46166992 87.65332031 C155.8984375 85.53125 155.8984375 85.53125 155.8984375 82.53125 C155.2384375 82.53125 154.5784375 82.53125 153.8984375 82.53125 C153.64707031 83.60375 153.39570312 84.67625 153.13671875 85.78125 C151.7187307 91.44822242 149.8906126 96.97788069 148.0859375 102.53125 C143.45210103 116.85730192 138.97483521 131.22286714 134.64675903 145.64373779 C131.29471416 156.80255978 127.87266493 167.92092431 124.09033203 178.94335938 C122.64544 183.1747669 121.40597602 187.35677184 120.3984375 191.71875 C118.61328966 198.44245055 115.20439529 204.34901686 109.32421875 208.23046875 C103.04703218 211.42862658 97.82530035 212.69549816 90.79296875 212.734375 C89.5959156 212.74292511 89.5959156 212.74292511 88.37467957 212.75164795 C86.68428876 212.76109245 84.99387959 212.76762975 83.3034668 212.77148438 C80.73778355 212.78114888 78.17291577 212.8121595 75.60742188 212.84375 C73.96094223 212.85028472 72.31445688 212.85553335 70.66796875 212.859375 C69.90934036 212.8717218 69.15071198 212.8840686 68.36909485 212.89678955 C61.79189647 212.86976786 55.15924533 211.46675299 50.2734375 206.71875 C42.18936383 197.88309579 39.59163948 184.59395611 36.33984375 173.3671875 C34.79814598 168.09344676 32.94292505 162.97708557 31.046875 157.8203125 C29.46023195 153.27625316 28.21005444 148.65632482 26.92578125 144.01953125 C25.89737952 140.5276577 24.7144839 137.13573786 23.4609375 133.71875 C21.57206503 128.55467665 19.91796723 123.37433882 18.3984375 118.09375 C16.347576 110.98172586 14.09656101 103.96133097 11.71728516 96.95117188 C9.9091654 91.60767665 8.12396634 86.25649278 6.3359375 80.90625 C5.95985352 79.78621582 5.58376953 78.66618164 5.19628906 77.51220703 C2.96832311 70.84881193 0.84343546 64.16218528 -1.20629883 57.44189453 C-2.3054322 53.8684372 -3.47117154 50.32449048 -4.6640625 46.78125 C-4.87603271 46.14912598 -5.08800293 45.51700195 -5.30639648 44.86572266 C-6.18195131 42.25545183 -7.06242171 39.64686028 -7.9453125 37.0390625 C-8.4184285 35.63514219 -8.88476667 34.22891653 -9.34375 32.8203125 C-9.92768206 31.05647647 -10.54319063 29.30307251 -11.171875 27.5546875 C-13.73231352 20.05242357 -15.61980436 12.46852913 -14.1015625 4.53125 C-10.60786863 -0.8029914 -5.77036465 -0.04896591 0 0 Z " fill="#016E95" transform="translate(1127.1015625,211.46875)"/>
<path d="M0 0 C0.78761719 0.29519531 1.57523438 0.59039062 2.38671875 0.89453125 C12.99149927 5.24378679 21.86625554 12.02461162 30 20 C30.82951172 20.79277344 30.82951172 20.79277344 31.67578125 21.6015625 C49.48233643 40.32004369 49.75748869 66.49506689 49.57283282 90.62804174 C49.54866026 94.42926529 49.5519453 98.2304821 49.55152893 102.0317688 C49.54693489 108.39420013 49.52350523 114.7563275 49.48706055 121.11865234 C49.44509435 128.46429155 49.42772934 135.80965942 49.4244408 143.1554116 C49.42084144 151.01501587 49.40199792 158.8745236 49.37732053 166.73408747 C49.37110601 168.98774282 49.36746138 171.24139084 49.36428642 173.49505234 C49.35728514 177.68545923 49.33289564 181.87558908 49.30639648 186.06591797 C49.30573181 187.30849365 49.30506714 188.55106934 49.30438232 189.83129883 C49.28941963 191.54215164 49.28941963 191.54215164 49.27415466 193.28756714 C49.26950416 194.27594007 49.26485365 195.26431301 49.26006222 196.28263664 C48.88252275 200.22750766 48.03185714 203.068 45.0625 205.75 C41.92289664 207.65278991 39.36988628 208.1268777 35.77563477 208.14526367 C34.92787979 208.15164352 34.08012482 208.15802338 33.2066803 208.16459656 C32.29413986 208.16570938 31.38159943 208.1668222 30.44140625 208.16796875 C29.50070786 208.17129715 28.56000946 208.17462555 27.59080505 208.17805481 C25.6011504 208.18311765 23.61148726 208.18546333 21.62182617 208.18530273 C18.57782002 208.187489 15.53417639 208.20565091 12.49023438 208.22460938 C10.55729291 208.22754346 8.62434972 208.22952815 6.69140625 208.23046875 C5.78089005 208.23765427 4.87037384 208.24483978 3.93226624 208.25224304 C2.65590553 208.2476281 2.65590553 208.2476281 1.35375977 208.24291992 C0.60780045 208.24434494 -0.13815887 208.24576996 -0.90672302 208.24723816 C-4.4212489 207.83213547 -6.46002113 206.65997418 -8.6875 203.9375 C-9.93256685 201.15092181 -10.29253742 199.30603876 -10.58203125 196.31640625 C-10.66300049 195.5076001 -10.74396973 194.69879395 -10.82739258 193.86547852 C-10.88435303 193.24987061 -10.94131348 192.6342627 -11 192 C-12.00417969 192.59167969 -13.00835938 193.18335938 -14.04296875 193.79296875 C-44.29881998 211.37708893 -79.47378235 217.53072689 -113.70996094 208.63720703 C-132.83716405 203.31503218 -149.93478639 193.66169112 -160.359375 176.125 C-166.53869128 164.35487376 -168.95433117 154.33319952 -168.12207031 141.02001953 C-168.01407455 139.23290557 -167.96728333 137.44232306 -167.9296875 135.65234375 C-167.3182668 120.1834 -159.35811988 107.57164205 -148.4375 97.09375 C-128.36527886 79.85222671 -104.26746159 76.93541324 -78.90267563 76.77020454 C-76.43953337 76.75355023 -73.9765291 76.73031849 -71.51345825 76.70530701 C-64.52076226 76.63511629 -57.52801993 76.57402962 -50.53515625 76.52319336 C-46.23537757 76.49148047 -41.93577729 76.45026047 -37.63614273 76.40299797 C-36.00225115 76.38697355 -34.36831891 76.37465401 -32.73437119 76.36609077 C-30.46318973 76.35399192 -28.19243402 76.32987704 -25.92138672 76.30297852 C-24.62965546 76.29267105 -23.33792419 76.28236359 -22.00704956 76.27174377 C-18.88633693 76.31340087 -18.88633693 76.31340087 -17 74 C-16.38700228 64.49067645 -18.98685644 53.96198758 -25.015625 46.5078125 C-29.79569971 41.94501391 -34.5731136 39.41907528 -41 38 C-41.72574219 37.81824219 -42.45148438 37.63648438 -43.19921875 37.44921875 C-57.63850123 35.13329478 -73.85225832 36.31084207 -86 45 C-88.63652946 47.24325718 -91.18481286 49.56000746 -93.72265625 51.9140625 C-102.91005937 60.32928251 -112.50924455 60.35070474 -124.37304688 60.31567383 C-126.62678714 60.31249748 -128.8792323 60.33608685 -131.1328125 60.36132812 C-132.58072753 60.36360016 -134.02864605 60.36430506 -135.4765625 60.36328125 C-136.77674316 60.36626221 -138.07692383 60.36924316 -139.41650391 60.37231445 C-143.9931259 59.89681721 -147.27623312 58.4265657 -150.8125 55.5 C-154.68005714 50.61466466 -153.42146802 42.81625868 -153 37 C-150.51461574 24.45330115 -143.01418587 15.58699154 -133 8 C-98.37005709 -14.69412024 -37.81355884 -14.34307404 0 0 Z " fill="#016E95" transform="translate(1044,216)"/>
<path d="M0 0 C5.03884442 3.5127944 5.96009466 8.63310349 7.078125 14.37890625 C8.31115521 21.75474999 9.04648041 29.2021038 9.79980469 36.6394043 C10.41442676 42.66312155 11.14317677 48.52244285 12.4375 54.4375 C13.78045943 60.5846545 14.46722067 66.63715826 15.03540039 72.89086914 C15.80854862 81.24102608 16.82845317 89.55575381 17.875 97.875 C17.95885956 98.54651093 18.04271912 99.21802185 18.12911987 99.90988159 C19.37608003 109.88449539 20.71451387 119.84471986 22.22119141 129.78369141 C24.13660159 143.29219721 24.13660159 143.29219721 21.375 148.125 C17.90657045 150.03263625 14.71550522 149.96145268 10.875 149.5 C8.20200307 148.45971382 5.92157538 147.42925049 3.4375 146.0625 C2.76589844 145.70994141 2.09429687 145.35738281 1.40234375 144.99414062 C-0.02841787 144.24048298 -1.45527134 143.47936611 -2.87841797 142.71142578 C-5.22447662 141.44635916 -7.58133747 140.20355913 -9.94140625 138.96484375 C-14.01122375 136.8258117 -18.07043182 134.66778893 -22.125 132.5 C-22.48851562 133.51707031 -22.48851562 133.51707031 -22.859375 134.5546875 C-24.39053678 138.1179467 -26.32003163 141.34798215 -28.375 144.625 C-28.80538574 145.31223145 -29.23577148 145.99946289 -29.67919922 146.70751953 C-37.6338067 159.19086458 -46.65915442 171.12601954 -56.125 182.5 C-56.96289062 183.510625 -57.80078125 184.52125 -58.6640625 185.5625 C-64.14905694 192.1329542 -69.81231236 198.50742699 -75.62890625 204.78515625 C-77.73359486 207.07429332 -79.7856867 209.3922784 -81.8125 211.75 C-87.74146961 218.56831505 -94.27168597 224.63057759 -101.125 230.5 C-102.14386499 231.39380698 -103.16204018 232.28840063 -104.1796875 233.18359375 C-122.02958865 248.8032275 -141.30882394 262.20929234 -162.19628906 273.45800781 C-163.49159729 274.15780218 -164.78259724 274.86562538 -166.06933594 275.58105469 C-167.9322445 276.6151629 -169.80704056 277.62323858 -171.6875 278.625 C-172.76128906 279.20507812 -173.83507812 279.78515625 -174.94140625 280.3828125 C-181.36113486 282.63562524 -187.39483561 279.9161062 -193.5 277.6875 C-194.20382812 277.43935547 -194.90765625 277.19121094 -195.6328125 276.93554688 C-223.57201388 266.91720185 -249.56378714 250.34338018 -271.234375 230.1796875 C-273.02660628 228.4409778 -273.02660628 228.4409778 -275.125 227.5 C-275.125 226.84 -275.125 226.18 -275.125 225.5 C-274.01382813 225.24605469 -272.90265625 224.99210938 -271.7578125 224.73046875 C-267.20644383 223.6827159 -262.66421991 222.59908212 -258.125 221.5 C-257.22652344 221.28472656 -256.32804687 221.06945312 -255.40234375 220.84765625 C-230.06277972 214.00999611 -206.45214064 198.49419435 -187.5 180.7265625 C-185.41915667 178.77577188 -183.29676998 176.91025591 -181.125 175.0625 C-173.80643528 168.69069006 -167.03118856 161.70439231 -160.734375 154.328125 C-159.09913566 152.47062012 -157.39018207 150.73393991 -155.625 149 C-137.61451815 131.29523113 -122.10015882 110.09243697 -109.125 88.5 C-108.51785156 87.60667969 -107.91070312 86.71335937 -107.28515625 85.79296875 C-105.95751855 83.6426965 -105.95751855 83.6426965 -106.22924805 81.58666992 C-107.53875691 78.53614601 -109.51005686 77.5791147 -112.296875 75.8203125 C-113.88242187 74.79744141 -113.88242187 74.79744141 -115.5 73.75390625 C-116.61375 73.05136719 -117.7275 72.34882813 -118.875 71.625 C-132.82109407 62.80229495 -132.82109407 62.80229495 -136.125 57.5 C-137.21344762 52.6256476 -136.88306341 48.0490861 -134.6875 43.5625 C-128.88869893 38.89517231 -121.71096005 36.9525306 -114.71875 34.68359375 C-110.39686408 33.26019002 -106.10502316 31.7592242 -101.8125 30.25 C-100.06903578 29.63794857 -98.32554554 29.02597127 -96.58203125 28.4140625 C-95.68693848 28.09985352 -94.7918457 27.78564453 -93.86962891 27.46191406 C-89.2488996 25.84248038 -84.6246351 24.23324013 -80 22.625 C-78.5756665 22.12963745 -78.5756665 22.12963745 -77.12255859 21.62426758 C-68.63072174 18.67270709 -60.13436154 15.73425451 -51.63769531 12.79663086 C-45.68731137 10.73794816 -39.74079604 8.66885012 -33.80004883 6.58251953 C-30.60517993 5.46118019 -27.40809366 4.34624318 -24.2109375 3.23144531 C-22.28360283 2.55561494 -20.36035264 1.86816652 -18.4375 1.1796875 C-17.385625 0.81101562 -16.33375 0.44234375 -15.25 0.0625 C-14.38632812 -0.24558594 -13.52265625 -0.55367188 -12.6328125 -0.87109375 C-8.22328485 -1.97690988 -4.10990931 -2.06327431 0 0 Z " fill="#016E96" transform="translate(466.125,273.5)"/>
<path d="M0 0 C0.96898727 -0.00241196 1.93797455 -0.00482391 2.93632507 -0.00730896 C4.9812734 -0.00633205 7.02624867 0.00702428 9.07104492 0.03198242 C12.17915177 0.06618542 15.28439551 0.05265851 18.39257812 0.03320312 C20.38673072 0.04010546 22.38087602 0.04978133 24.375 0.0625 C25.29404617 0.05754013 26.21309235 0.05258026 27.1599884 0.04747009 C34.78695546 0.18458538 41.41043984 2.06739275 47.10546875 7.34375 C51.67006477 13.26483581 53.29960011 21.12423012 55.38671875 28.19140625 C55.87102984 29.78438324 56.35655399 31.37699191 56.84326172 32.96923828 C59.62200277 42.11585458 62.23720643 51.30212605 64.68408203 60.54321289 C75.50879668 109.16362389 75.50879668 109.16362389 104.88671875 146.62890625 C108.35997056 147.78665685 111.24739323 147.69757277 114.88671875 147.62890625 C117.04524805 142.0621728 118.8933738 136.49911729 120.51171875 130.75390625 C120.76042725 129.87822998 121.00913574 129.00255371 121.26538086 128.1003418 C124.17605539 117.75253973 126.89247503 107.35225917 129.63037109 96.95776367 C133.26023825 83.17891091 137.03308813 69.45789727 141.08520508 55.79736328 C142.39509517 51.3611199 143.63776117 46.91268442 144.82421875 42.44140625 C145.14261719 41.24257812 145.46101563 40.04375 145.7890625 38.80859375 C146.39386462 36.51796972 146.99014835 34.22555269 147.57861328 31.93066406 C148.33800768 28.97323104 149.11188008 26.01982611 149.88671875 23.06640625 C150.12382568 22.12579346 150.36093262 21.18518066 150.60522461 20.21606445 C152.68429888 12.36217608 155.65645588 7.08038626 161.88671875 1.62890625 C164.73191262 0.68033864 167.37439133 0.49011055 170.3605957 0.4519043 C171.67765251 0.43265144 171.67765251 0.43265144 173.02131653 0.41300964 C173.96303207 0.40562271 174.90474762 0.39823578 175.875 0.390625 C176.85156052 0.38255325 177.82812103 0.37448151 178.83427429 0.36616516 C180.89950802 0.35234741 182.96476436 0.34161495 185.0300293 0.33374023 C187.13751943 0.32221325 189.24498021 0.3017502 191.35229492 0.2722168 C194.40173125 0.22948219 197.45030116 0.21336336 200.5 0.203125 C201.90346428 0.17686287 201.90346428 0.17686287 203.33528137 0.15007019 C209.38525862 0.17001355 212.89466343 1.17332835 217.88671875 4.62890625 C218.61341933 13.63999346 216.21689559 21.34800784 213.68701172 29.87109375 C212.16945628 35.10059535 210.78928974 40.36764567 209.38671875 45.62890625 C207.23010092 53.6713537 205.04475587 61.70418694 202.80078125 69.72265625 C200.9528297 76.34648258 199.16934766 82.98724505 197.38671875 89.62890625 C193.42906539 104.35120803 189.37867307 119.02216138 185.01171875 133.62890625 C182.02422666 143.62871587 179.21725047 153.66206633 176.54272461 163.74975586 C174.00952706 173.27292988 171.30669698 182.74386469 168.55078125 192.20483398 C167.17160988 196.97086216 165.82608967 201.7057732 164.8046875 206.5625 C164.05282919 210.10386161 162.96333678 213.30035534 161.51171875 216.62890625 C161.11210938 217.55703125 160.7125 218.48515625 160.30078125 219.44140625 C159.83414062 220.49328125 159.3675 221.54515625 158.88671875 222.62890625 C158.59708252 223.2950293 158.30744629 223.96115234 158.0090332 224.64746094 C147.49088012 248.67533846 136.27788558 268.43795893 110.93359375 278.65625 C101.70418721 281.60256055 92.89855388 281.98814842 83.26171875 281.94140625 C82.5268222 281.94024811 81.79192566 281.93908997 81.03475952 281.93789673 C69.87497599 281.90342647 58.80872659 281.36723285 47.69921875 280.31640625 C46.41257324 280.19885986 45.12592773 280.08131348 43.80029297 279.96020508 C36.84633842 279.2310788 30.70120079 278.55334248 25.01171875 274.19140625 C21.48921163 269.29903525 22.70248003 262.02037859 22.69921875 256.31640625 C22.68697266 255.20072266 22.67472656 254.08503906 22.66210938 252.93554688 C22.63857425 239.70096386 22.63857425 239.70096386 26.10180664 234.96850586 C28.63880601 233.06445504 30.47421152 233.27220011 33.62109375 233.30078125 C34.75289062 233.3059375 35.8846875 233.31109375 37.05078125 233.31640625 C38.23414063 233.33703125 39.4175 233.35765625 40.63671875 233.37890625 C41.80460937 233.3840625 42.9725 233.38921875 44.17578125 233.39453125 C49.8534311 233.44602921 55.28980235 233.69850976 60.88671875 234.62890625 C71.05668663 235.37374897 78.27672847 234.17522362 86.13671875 227.44140625 C90.23066239 223.53153139 93.27301926 219.63042996 95.88671875 214.62890625 C96.42296875 213.72140625 96.95921875 212.81390625 97.51171875 211.87890625 C99.59254113 206.96059881 100.70111614 201.82537726 101.88671875 196.62890625 C101.11070313 196.59152344 100.3346875 196.55414063 99.53515625 196.515625 C78.63255065 195.24350938 59.84937595 189.07247439 45.53613281 173.12402344 C42.42008773 169.45391302 39.60723906 165.59818997 36.88671875 161.62890625 C36.18804688 160.61054688 35.489375 159.5921875 34.76953125 158.54296875 C21.64025248 138.26155368 14.66049966 114.62651515 8.16821289 91.578125 C5.2826585 81.37237473 2.09058912 71.26248319 -1.09466553 61.14717102 C-4.98921214 48.77721907 -8.86064419 36.41322351 -12.31201172 23.91015625 C-13.38738442 20.03523265 -14.606602 16.36197313 -16.11328125 12.62890625 C-16.61328125 9.12890625 -16.61328125 9.12890625 -16.11328125 5.62890625 C-11.20612315 0.14848901 -7.12222109 -0.1020711 0 0 Z " fill="#016E95" transform="translate(1665.11328125,211.37109375)"/>
<path d="M0 0 C1.08986206 0.00237671 2.17972412 0.00475342 3.3026123 0.00720215 C48.79007098 0.16231283 48.79007098 0.16231283 58.375 8.4375 C62.65252637 14.3117215 61.88925666 20.37141658 61.875 27.375 C61.90335938 28.63763672 61.93171875 29.90027344 61.9609375 31.20117188 C61.98276377 41.54136776 61.98276377 41.54136776 59.09375 45.19140625 C54.29078538 49.15937271 51.12882688 49.75886976 44.9375 49.6875 C43.63941406 49.69265625 42.34132813 49.6978125 41.00390625 49.703125 C37.33610795 49.58577851 33.82384987 49.05234053 30.20703125 48.44140625 C23.27750766 47.3206826 16.51047505 47.09209152 9.5 47.125 C8.27490723 47.12918945 7.04981445 47.13337891 5.78759766 47.13769531 C-3.02961741 47.2477203 -11.13788069 47.88581707 -19.625 50.4375 C-20.55957031 50.69273437 -21.49414062 50.94796875 -22.45703125 51.2109375 C-29.32495923 53.4556276 -33.66545921 57.43874998 -37.625 63.4375 C-42.11767 72.60515125 -42.79931671 81.83904879 -42.75 91.875 C-42.75386719 92.68904297 -42.75773438 93.50308594 -42.76171875 94.34179688 C-43.13375486 98.19961162 -43.13375486 98.19961162 -41.625 101.4375 C-39.47891653 101.54044071 -37.32945043 101.57323418 -35.1809082 101.5793457 C-34.50764999 101.58282013 -33.83439178 101.58629456 -33.14073181 101.58987427 C-31.67347864 101.5972442 -30.20621422 101.60258296 -28.73894691 101.60616493 C-26.414185 101.61331693 -24.08963584 101.62897557 -21.76493835 101.64750671 C-15.15329994 101.7000227 -8.54177392 101.74791949 -1.92993164 101.76342773 C2.11093642 101.7735284 6.15127572 101.80291081 10.19193459 101.84474754 C11.73040574 101.85703902 13.26895169 101.86218217 14.80747032 101.85994911 C16.96686192 101.8575872 19.12474796 101.87982826 21.28393555 101.9074707 C22.51113815 101.91333694 23.73834076 101.91920319 25.00273132 101.92524719 C29.56499271 102.61826173 32.94562712 104.51841782 35.72680664 108.25244141 C37.19322589 113.19573792 36.78708828 118.53204835 36.80053711 123.65429688 C36.81242706 125.79934171 36.86162595 127.9414999 36.91210938 130.0859375 C36.92157594 131.46092356 36.92880987 132.83592717 36.93359375 134.2109375 C36.95377563 136.07371338 36.95377563 136.07371338 36.97436523 137.97412109 C36.16643439 142.64267788 34.78002069 144.16027608 31.375 147.4375 C27.3663904 149.48834295 23.94236699 149.70732778 19.47338867 149.75634766 C18.79966217 149.76639328 18.12593567 149.7764389 17.43179321 149.78678894 C15.2188599 149.81752434 13.00604704 149.83462879 10.79296875 149.8515625 C9.25310741 149.87028195 7.71325624 149.88985595 6.17341614 149.9102478 C2.13097135 149.96149306 -1.91150666 150.00115931 -5.95410156 150.03839111 C-10.08341643 150.07847859 -14.21259398 150.12954925 -18.34179688 150.1796875 C-26.43610398 150.27635666 -34.53047925 150.36079008 -42.625 150.4375 C-42.62646656 151.05980279 -42.62793312 151.68210558 -42.62944412 152.32326603 C-42.66653152 167.48075701 -42.72557161 182.63799094 -42.80890274 197.79528904 C-42.84867476 205.12532978 -42.8810765 212.45526345 -42.89599609 219.78540039 C-42.90902224 226.17600979 -42.93601114 232.56638341 -42.97961307 238.95686001 C-43.00220667 242.33913848 -43.01791197 245.72112639 -43.01688385 249.10348701 C-43.01924826 252.88388573 -43.04628856 256.66336344 -43.07910156 260.44360352 C-43.07155602 262.11703827 -43.07155602 262.11703827 -43.06385803 263.82427979 C-43.14930639 270.18800221 -43.61264881 274.37379973 -47.625 279.4375 C-50.9543102 281.3789567 -53.81573819 281.68913144 -57.62719727 281.69628906 C-58.59492569 281.70259338 -59.56265411 281.70889771 -60.55970764 281.71539307 C-61.59316818 281.7113446 -62.62662872 281.70729614 -63.69140625 281.703125 C-64.76245102 281.70503845 -65.83349579 281.7069519 -66.93699646 281.70892334 C-69.19717647 281.71028221 -71.45736436 281.70660662 -73.7175293 281.69824219 C-77.17840061 281.68752817 -80.63875407 281.69815321 -84.09960938 281.7109375 C-86.29687615 281.70961606 -88.49414259 281.70705398 -90.69140625 281.703125 C-91.72689102 281.70717346 -92.76237579 281.71122192 -93.82923889 281.71539307 C-95.27610329 281.70593658 -95.27610329 281.70593658 -96.75219727 281.69628906 C-98.02197166 281.69390228 -98.02197166 281.69390228 -99.31739807 281.69146729 C-101.9586094 281.40078402 -103.43276382 280.94675533 -105.625 279.4375 C-108.81613164 275.26479388 -109.04993931 271.57075727 -108.9992218 266.49624634 C-109.00319621 265.70218144 -109.00717061 264.90811654 -109.01126546 264.08998907 C-109.02088208 261.43171757 -109.00907381 258.77397915 -108.99731445 256.11572266 C-108.99974282 254.20831097 -109.00346258 252.30090055 -109.00837708 250.39349365 C-109.01778986 245.21106183 -109.00835388 240.02881879 -108.99504495 234.84640169 C-108.98372035 229.41350053 -108.98783917 223.98060855 -108.98979187 218.54769897 C-108.99067528 209.41311569 -108.97959094 200.27860655 -108.96118164 191.14404297 C-108.94007664 180.61222804 -108.93649041 170.08052221 -108.9427436 159.54869044 C-108.9484608 149.39699223 -108.94275986 139.2453321 -108.93157005 129.09363937 C-108.92694869 124.78542749 -108.92603958 120.47723909 -108.9281559 116.16902542 C-108.93005481 111.07841599 -108.92181307 105.98791577 -108.9060955 100.89733124 C-108.90189056 99.03951596 -108.90097619 97.18168952 -108.90378571 95.32387161 C-108.9358362 70.31562192 -106.2744799 43.27124614 -87.82421875 24.5390625 C-87.09847656 23.84554687 -86.37273438 23.15203125 -85.625 22.4375 C-84.70654297 21.49003906 -84.70654297 21.49003906 -83.76953125 20.5234375 C-62.90330933 0.32457876 -27.00094573 -0.15510111 0 0 Z " fill="#016E95" transform="translate(822.625,142.5625)"/>
<path d="M0 0 C0.84071045 -0.02594238 1.6814209 -0.05188477 2.54760742 -0.07861328 C7.95758399 -0.09492641 11.15279709 0.67245283 15.375 4.375 C18.00704796 8.12041158 17.68098989 12.24871855 17.67578125 16.6484375 C17.68006638 17.44980133 17.6843515 18.25116516 17.68876648 19.07681274 C17.69450053 20.76962338 17.69501685 22.46245866 17.69067383 24.15527344 C17.68751938 26.734156 17.71096427 29.31188463 17.73632812 31.890625 C17.7386019 33.53906106 17.73930425 35.18750019 17.73828125 36.8359375 C17.747491 37.6017514 17.75670074 38.36756531 17.76618958 39.15658569 C17.72534846 43.92604888 17.09767381 47.29041204 14.375 51.375 C11.42879038 53.23798074 9.21861591 53.61297653 5.76513672 53.55444336 C4.40254227 53.53969215 4.40254227 53.53969215 3.01242065 53.52464294 C2.03636871 53.50490921 1.06031677 53.48517548 0.0546875 53.46484375 C-2.02864336 53.44440798 -4.11197681 53.42423411 -6.1953125 53.40429688 C-9.46690795 53.36096611 -12.73833114 53.31269314 -16.00976562 53.25854492 C-19.17577526 53.20988502 -22.34156143 53.18025615 -25.5078125 53.15234375 C-26.95367233 53.1197068 -26.95367233 53.1197068 -28.42874146 53.08641052 C-44.54415746 52.97028656 -58.03864658 61.09766018 -69.40625 71.98046875 C-74.57224257 77.5557389 -76.745678 82.91775886 -76.75630188 90.48519897 C-76.76031006 91.51696762 -76.76431824 92.54873627 -76.76844788 93.61177063 C-76.76791916 94.7381041 -76.76739044 95.86443756 -76.7668457 97.02490234 C-76.77205734 98.81085564 -76.77205734 98.81085564 -76.77737427 100.63288879 C-76.78472861 103.21979683 -76.79007571 105.80671117 -76.79366493 108.39362717 C-76.79958666 112.48703966 -76.81613778 116.58036574 -76.83500671 120.67373657 C-76.8413437 122.07645983 -76.84766933 123.47918315 -76.85398388 124.88190651 C-76.85714969 125.58428861 -76.8603155 126.28667071 -76.86357725 127.01033711 C-76.9056178 136.53714964 -76.9386307 146.06392116 -76.95092773 155.59082031 C-76.95931323 162.0213533 -76.98181977 168.4516714 -77.0202834 174.88209689 C-77.04002416 178.28274535 -77.05245529 181.68307277 -77.04744911 185.0837822 C-77.04510104 188.87828729 -77.06722668 192.67192109 -77.0949707 196.46630859 C-77.08506859 198.1497361 -77.08506859 198.1497361 -77.07496643 199.86717224 C-77.14803273 205.94687257 -77.3253744 209.88422684 -81.625 214.375 C-84.96324329 216.23047983 -87.81205851 216.63354719 -91.59545898 216.68139648 C-92.55673203 216.69738388 -93.51800507 216.71337128 -94.50840759 216.72984314 C-95.53559402 216.73520584 -96.56278046 216.74056854 -97.62109375 216.74609375 C-98.68739517 216.75512222 -99.75369659 216.7641507 -100.85231018 216.77345276 C-103.10406696 216.78793917 -105.35586568 216.79683799 -107.60766602 216.80053711 C-111.04710817 216.8124467 -114.48476361 216.86166156 -117.92382812 216.91210938 C-120.1145746 216.92157258 -122.30533206 216.9288081 -124.49609375 216.93359375 C-125.52125595 216.95312607 -126.54641815 216.97265839 -127.60264587 216.99278259 C-135.57571495 216.94253697 -135.57571495 216.94253697 -139.19555664 214.15258789 C-143.50658665 209.22377788 -143.91855966 204.85398541 -143.88569641 198.48034668 C-143.88952196 197.69147678 -143.89334751 196.90260688 -143.89728898 196.08983183 C-143.90759744 193.44979382 -143.90363096 190.80997416 -143.8996582 188.16992188 C-143.90400582 186.27584126 -143.90918913 184.3817624 -143.91514587 182.48768616 C-143.92854049 177.34522873 -143.92911411 172.20284478 -143.92658257 167.06037331 C-143.92551337 162.76842579 -143.93039485 158.47649318 -143.935188 154.18454885 C-143.94628438 144.06100953 -143.94671957 133.93750731 -143.94067383 123.81396484 C-143.93463038 113.3659987 -143.94695421 102.91816709 -143.9682439 92.4702239 C-143.98584731 83.50195757 -143.99186332 74.53373412 -143.98860615 65.56545115 C-143.98679144 60.20814258 -143.98944843 54.85093003 -144.00332069 49.49363708 C-144.01587421 44.45720359 -144.01397842 39.42098028 -144.00090981 34.38455009 C-143.99853922 32.53542956 -144.00129591 30.68629434 -144.00953293 28.83719063 C-144.01996124 26.31443277 -144.01193158 23.79238536 -143.9992218 21.26965332 C-144.00659609 20.53667511 -144.01397037 19.80369689 -144.02156812 19.04850721 C-143.96081704 13.32313601 -142.32126634 10.30579036 -138.62255859 6.09570312 C-134.07694783 3.48636409 -129.81888943 3.80299196 -124.6640625 3.84375 C-123.06816788 3.83800964 -123.06816788 3.83800964 -121.44003296 3.83215332 C-119.19243421 3.82943492 -116.94480379 3.83679096 -114.69726562 3.85351562 C-111.26880735 3.87488279 -107.8424548 3.85373207 -104.4140625 3.828125 C-102.2265579 3.83076912 -100.0390546 3.83589582 -97.8515625 3.84375 C-96.32156113 3.83160461 -96.32156113 3.83160461 -94.76065063 3.81921387 C-88.51168922 3.90091755 -84.73136114 4.7019428 -79.625 8.375 C-76.85431186 11.79672415 -77.39658968 15.91699528 -77.5 20.125 C-77.50902344 20.82238281 -77.51804687 21.51976562 -77.52734375 22.23828125 C-77.55080112 23.95066958 -77.58666896 25.66288004 -77.625 27.375 C-76.87778687 26.86900269 -76.87778687 26.86900269 -76.11547852 26.3527832 C-73.80870937 24.79386707 -71.49813992 23.24067246 -69.1875 21.6875 C-68.40439453 21.15705078 -67.62128906 20.62660156 -66.81445312 20.08007812 C-58.86797262 14.74972289 -51.09601023 10.22783309 -42 7.1875 C-40.93265625 6.8172168 -40.93265625 6.8172168 -39.84375 6.43945312 C-26.70317693 1.92689369 -13.83776506 0.22649399 0 0 Z " fill="#026E94" transform="translate(1621.625,207.625)"/>
<path d="M0 0 C34.10106869 7.75156998 67.7901129 33.7901129 92 58 C92.23873441 61.03696807 92.35184287 63.9790034 92.37109375 67.01953125 C92.38211624 67.93745453 92.39313873 68.85537781 92.40449524 69.80111694 C92.43155832 72.80507124 92.43761887 75.80842872 92.4375 78.8125 C92.43923218 79.83219879 92.44096436 80.85189758 92.44274902 81.90249634 C92.42983793 99.16309612 90.83215104 115.14246294 87 132 C86.62342512 133.81293905 86.25078049 135.62670071 85.8828125 137.44140625 C84.52000009 144.00459274 82.93880342 150.37900624 80.76757812 156.72753906 C80.03130509 158.9073194 79.34432853 161.09548732 78.67578125 163.296875 C75.98485046 172.12076235 73.07795627 180.84789731 69.875 189.5 C69.55055908 190.40202148 69.22611816 191.30404297 68.8918457 192.23339844 C68.5743335 193.07418945 68.25682129 193.91498047 67.9296875 194.78125 C67.65366699 195.52439453 67.37764648 196.26753906 67.09326172 197.03320312 C65.74016581 199.46744624 64.37781784 200.5705476 62 202 C58.4375 202.4375 58.4375 202.4375 55 202 C51.47164652 198.66190088 50.93981161 194.26885898 50.0625 189.6875 C49.8984668 188.86950928 49.73443359 188.05151855 49.56542969 187.20874023 C48.21006372 180.34253853 46.96898517 173.45405534 45.75 166.5625 C45.4871521 165.07979614 45.4871521 165.07979614 45.21899414 163.56713867 C44.97910767 162.17458862 44.97910767 162.17458862 44.734375 160.75390625 C44.59225586 159.93220947 44.45013672 159.1105127 44.30371094 158.26391602 C44 156 44 156 44 152 C43.27748047 152.235979 42.55496094 152.47195801 41.81054688 152.71508789 C27.78198357 157.28677778 13.75080149 161.76172968 -0.4453125 165.79125977 C-1.36957031 166.05479248 -2.29382813 166.3183252 -3.24609375 166.58984375 C-4.04716553 166.81534912 -4.8482373 167.04085449 -5.67358398 167.27319336 C-8.07132563 167.98665849 -8.07132563 167.98665849 -10.60571289 169.06079102 C-13.67396281 170.26437595 -15.73341531 170.48651261 -19 170 C-22.0214531 167.37610652 -22.89144075 165.70563514 -23.5 161.75 C-22.73361342 156.00210069 -20.20594462 151.42579061 -17.64453125 146.2734375 C-13.21813508 137.08836877 -10.06365179 127.63579505 -6.95532227 117.93994141 C-5.84858389 114.53402688 -4.7003129 111.14302557 -3.5546875 107.75 C6.54792908 77.48991677 12.34671629 45.37875168 4.0625 13.8125 C3.89298828 13.14025391 3.72347656 12.46800781 3.54882812 11.77539062 C2.52784189 7.78849761 1.34833637 3.88780397 0 0 Z " fill="#016E96" transform="translate(447,80)"/>
<path d="M0 0 C0.67212021 -0.00189835 1.34424042 -0.00379669 2.03672791 -0.00575256 C4.24498377 -0.00943958 6.4529065 0.00121038 8.66113281 0.01245117 C10.19858766 0.01364382 11.73604325 0.01409595 13.27349854 0.01383972 C16.48788037 0.01540077 19.70215022 0.02366437 22.91650391 0.03710938 C27.04494591 0.05415598 31.17326565 0.05792189 35.30173874 0.05716419 C38.47234269 0.05743543 41.6429197 0.06290815 44.81351471 0.07016563 C46.33661953 0.07335535 47.85972741 0.07532041 49.38283539 0.07605934 C51.50397507 0.07821649 53.62498231 0.08694527 55.74609375 0.09765625 C56.9545697 0.10146805 58.16304565 0.10527985 59.40814209 0.10920715 C62.11425781 0.24291992 62.11425781 0.24291992 63.11425781 1.24291992 C63.42437718 5.67313543 63.3927282 10.11568994 63.42675781 14.55541992 C63.47026367 16.43003906 63.47026367 16.43003906 63.51464844 18.3425293 C63.52302734 19.54329102 63.53140625 20.74405273 63.54003906 21.98120117 C63.55462158 23.0850415 63.5692041 24.18888184 63.58422852 25.32617188 C63.00305437 28.93307448 61.93643731 29.99951943 59.11425781 32.24291992 C56.75308455 33.66517958 54.43190141 34.98167765 51.98925781 36.24291992 C51.31693115 36.59249756 50.64460449 36.9420752 49.9519043 37.30224609 C36.43432061 44.24493411 23.37207841 47.47757964 8.17675781 47.55541992 C7.02445679 47.5636377 7.02445679 47.5636377 5.84887695 47.57202148 C-3.6655822 47.4528982 -10.78509894 45.76391883 -17.88574219 39.24291992 C-23.42628789 33.11915888 -24.35510226 28.67947012 -24.19042969 20.50073242 C-23.46861921 12.78291268 -19.72739462 8.59860689 -13.98339844 3.68823242 C-9.40707579 0.53508646 -5.50633464 -0.00647594 0 0 Z " fill="#FCD129" transform="translate(964.8857421875,336.757080078125)"/>
<path d="M0 0 C15.51 0 31.02 0 47 0 C47 13.86 47 27.72 47 42 C45.1260758 39.1891137 44.32238144 37.1133715 43.3125 33.9375 C38.50992549 20.55385487 28.93966761 11.27011342 16.21875 5.25390625 C10.9506685 3.20165605 5.54960275 2.02041083 0 1 C0 0.67 0 0.34 0 0 Z " fill="#47704C" transform="translate(1953,0)"/>
<path d="M0 0 C14.85 0 29.7 0 45 0 C41.44683859 1.77658071 38.13884165 2.96487738 34.375 4.1875 C27.69782573 6.5518992 22.4432584 9.49489745 17 14 C16.35417969 14.52207031 15.70835938 15.04414063 15.04296875 15.58203125 C7.40417124 22.42200026 3.88067941 32.39773532 1 42 C0.67 42 0.34 42 0 42 C0 28.14 0 14.28 0 0 Z " fill="#47704C" transform="translate(0,0)"/>
<path d="M0 0 C0.33 0 0.66 0 1 0 C1 13.86 1 27.72 1 42 C-13.85 42 -28.7 42 -44 42 C-40.70804307 40.35402153 -37.86409088 39.29948908 -34.375 38.25 C-20.57544498 33.68372389 -11.5191307 25.69272084 -4.4765625 13.0546875 C-2.43364822 8.82834103 -1.06046057 4.56503027 0 0 Z " fill="#47704C" transform="translate(1999,594)"/>
<path d="M0 0 C1.8739242 2.8108863 2.67761856 4.8866285 3.6875 8.0625 C5.86345829 14.16324231 8.95467079 18.97137115 13 24 C13.51175781 24.63808594 14.02351562 25.27617188 14.55078125 25.93359375 C22.72964037 35.04601992 34.24543989 38.97998558 46 41 C46 41.33 46 41.66 46 42 C30.82 42 15.64 42 0 42 C0 28.14 0 14.28 0 0 Z " fill="#47704C" transform="translate(0,594)"/>
<path d="M0 0 C22.77 0 45.54 0 69 0 C69 0.33 69 0.66 69 1 C68.16728073 1.01030746 67.33456146 1.02061493 66.47660828 1.03123474 C58.63376791 1.129162 50.79100373 1.2316697 42.94829082 1.33933926 C38.91615716 1.39453281 34.88401619 1.44794712 30.85180664 1.49731445 C26.96141552 1.54501062 23.07111231 1.59735535 19.18082619 1.65294075 C17.69567869 1.6733405 16.21050711 1.69205751 14.725317 1.70907402 C12.64711162 1.73317079 10.56907192 1.76321796 8.4909668 1.79467773 C7.30738083 1.81022202 6.12379486 1.8257663 4.90434265 1.84178162 C1.93363184 1.87536986 1.93363184 1.87536986 -1 3 C-0.67 2.01 -0.34 1.02 0 0 Z " fill="#ECCB2F" transform="translate(780,292)"/>
<path d="M0 0 C0.66 0.33 1.32 0.66 2 1 C-6.91 9.91 -15.82 18.82 -25 28 C-25.66 27.67 -26.32 27.34 -27 27 C-26.25234375 26.26394531 -25.5046875 25.52789062 -24.734375 24.76953125 C-23.73944821 23.78399056 -22.74466412 22.79830579 -21.75 21.8125 C-21.25886719 21.32974609 -20.76773438 20.84699219 -20.26171875 20.34960938 C-17.99102052 18.09404913 -15.89232498 15.86520683 -13.890625 13.359375 C-12.07181768 11.08962372 -10.22009577 9.30636968 -8 7.4375 C-5.21426889 5.05715513 -2.54032934 2.6461764 0 0 Z " fill="#FFF8E0" transform="translate(197,126)"/>
<path d="M0 0 C0.66 0.33 1.32 0.66 2 1 C1.51789063 1.47050781 1.03578125 1.94101562 0.5390625 2.42578125 C-0.40839844 3.35970703 -0.40839844 3.35970703 -1.375 4.3125 C-2.00148438 4.92738281 -2.62796875 5.54226563 -3.2734375 6.17578125 C-5.18086607 8.08812528 -5.18086607 8.08812528 -7 11 C-6.58485103 6.1565954 -4.53791301 4.18412171 -1 1 C-0.67 0.67 -0.34 0.34 0 0 Z " fill="#3B8FAE" transform="translate(337,313)"/>
<path d="M0 0 C0.66 0.33 1.32 0.66 2 1 C-0.97 3.97 -3.94 6.94 -7 10 C-7 7 -7 7 -4.625 4.4375 C-3.75875 3.633125 -2.8925 2.82875 -2 2 C-1.34 1.34 -0.68 0.68 0 0 Z " fill="#2A7E83" transform="translate(1392,215)"/>
</svg>
