<?xml version="1.0" encoding="UTF-8" standalone="no"?>
<!-- Created with Inkscape (http://www.inkscape.org/) -->

<svg
   version="1.1"
   id="svg1"
   width="760"
   height="476"
   viewBox="0 0 760 476"
   sodipodi:docname="InstaPay-logobase.net.eps"
   xmlns:inkscape="http://www.inkscape.org/namespaces/inkscape"
   xmlns:sodipodi="http://sodipodi.sourceforge.net/DTD/sodipodi-0.dtd"
   xmlns="http://www.w3.org/2000/svg"
   xmlns:svg="http://www.w3.org/2000/svg">
  <defs
     id="defs1" />
  <sodipodi:namedview
     id="namedview1"
     pagecolor="#ffffff"
     bordercolor="#000000"
     borderopacity="0.25"
     inkscape:showpageshadow="2"
     inkscape:pageopacity="0.0"
     inkscape:pagecheckerboard="0"
     inkscape:deskcolor="#d1d1d1">
    <inkscape:page
       x="0"
       y="0"
       inkscape:label="1"
       id="page1"
       width="760"
       height="476"
       margin="0"
       bleed="0" />
  </sodipodi:namedview>
  <g
     id="g1"
     inkscape:groupmode="layer"
     inkscape:label="1">
    <path
       id="path1"
       d="m 1434.14,3569.65 c 199.18,-0.35 398.36,-0.7 597.54,0.15 210.98,-367.07 419.96,-735.58 632.5,-1101.79 -422.07,-370.43 -845,-743.48 -1266.72,-1114.61 -20.39,-18.28 -32.85,-22.15 -60.62,-21.45 -188.09,0.35 -375.711,0.2 -563.789,0.2 429.449,379.22 860.619,757.69 1290.619,1136.56 -209.92,366.76 -422.62,732.62 -629.53,1100.94 z"
       style="fill:#f48271;fill-opacity:1;fill-rule:evenodd;stroke:none"
       transform="matrix(0.13333333,0,0,-0.13333333,0,476)" />
    <path
       id="path2"
       d="m 2890.23,3570 c 210.08,-367.46 419.77,-735.23 631.8,-1101.64 -179.69,-159.14 -360.78,-316.68 -540.27,-476.33 -229.57,-200.94 -458.28,-402.73 -687.15,-604.73 -31.41,-24.41 -53.36,-60.27 -97.46,-55.35 -188.83,0.55 -377.62,-0.35 -566.29,0.71 431.05,378.16 860.82,757.89 1291.68,1136.25 -212.7,364.61 -418.56,733.12 -631.76,1097.42 199.53,7.54 399.92,0.31 599.45,3.67 z"
       style="fill:#ef6823;fill-opacity:1;fill-rule:evenodd;stroke:none"
       transform="matrix(0.13333333,0,0,-0.13333333,0,476)" />
    <path
       id="path3"
       d="m 735.621,3562.62 c 188.289,1.95 376.759,0.19 565.039,0.7 -62.89,-194.61 -127.14,-388.71 -191.09,-582.97 -189.179,0.55 -378.32,-0.51 -567.5,0.7 66.758,193.05 125.942,388.87 193.551,581.57 z"
       style="fill:#512873;fill-opacity:1;fill-rule:evenodd;stroke:none"
       transform="matrix(0.13333333,0,0,-0.13333333,0,476)" />
    <path
       id="path4"
       d="m 3876.09,3563.16 c 359.22,0.86 718.91,-0.35 1078.13,0.51 112.23,3.17 225.7,-10.9 333.87,-40.58 162.3,-47.58 301.95,-160.71 364.14,-320.55 63.75,-161.92 34.22,-349.34 -23.21,-508.99 -162.46,-471.09 -655.15,-802.34 -1149.06,-803.94 -321.95,-1.41 -644.06,-0.31 -966.21,0 -60.59,-185.82 -121.87,-371.29 -182.3,-557.11 -189.54,-0.7 -378.87,0 -568.4,-0.2 75.19,219.22 143.51,440.71 218.71,659.73 179.49,159.65 360.58,317.19 540.27,476.33 395.2,-0.16 791.45,-0.7 1186.64,0.35 157.89,0.9 309.81,102.58 360.94,253.83 22.66,66.56 29.84,137.15 -20.39,193.36 -53.56,58.83 -125.59,63.94 -200.39,64.8 -514.81,-1.05 -1029.61,0.9 -1544.42,-0.86 190.9,193.75 377.97,392.54 571.68,583.32 z"
       style="fill:#7d569e;fill-opacity:1;fill-rule:evenodd;stroke:none"
       transform="matrix(0.13333333,0,0,-0.13333333,0,476)" />
    <path
       id="path5"
       d="M 1033.67,2744.84 C 876.84,2274.8 723.871,1803.4 569.301,1332.66 379.77,1332.15 190.27,1331.6 0.738281,1332.85 158.629,1802.15 309.18,2274.45 466.211,2744.14 c 189.141,2.11 378.32,0.51 567.459,0.7 z"
       style="fill:#512873;fill-opacity:1;fill-rule:evenodd;stroke:none"
       transform="matrix(0.13333333,0,0,-0.13333333,0,476)" />
    <path
       id="path6"
       d="m 250.66,772.73 c 65.86,0.86 131.57,0.86 197.27,1.02 C 361.52,518.398 280.199,261.41 194.449,5.85938 129.648,5.69922 64.8398,5.69922 0.0390625,6.05078 83.2813,261.602 168.32,516.801 250.66,772.73 Z"
       style="fill:#512873;fill-opacity:1;fill-rule:evenodd;stroke:none"
       transform="matrix(0.13333333,0,0,-0.13333333,0,476)" />
    <path
       id="path7"
       d="m 651.68,769.02 c 31.8,-8.938 48.98,-32.141 66.718,-57.969 77.301,-118 152.653,-237.461 231.68,-354.25 43.75,139.449 90.122,278.039 136.132,416.789 65.7,-0.149 131.56,-0.149 197.23,-0.5 C 1204.26,548.59 1135.9,320.082 1058.28,95.082 1039.84,41.332 990.469,-10.6602 928.828,2.53906 895.621,16.5586 872.109,41.8789 852.27,71.2109 774.961,188.871 700.16,308.32 620.941,424.77 575.27,284.961 530.469,144.801 483.051,5.51172 417.891,5.69922 352.891,5.69922 287.73,6.05078 349.73,195.199 412.109,384.18 474.102,573.199 c 14.418,43.36 26.328,89.223 46.367,130.321 24.57,47.769 76.91,79.21 131.211,65.5 z"
       style="fill:#512873;fill-opacity:1;fill-rule:evenodd;stroke:none"
       transform="matrix(0.13333333,0,0,-0.13333333,0,476)" />
    <path
       id="path8"
       d="m 1546.76,772.191 c 195.47,3.321 391.48,-0.511 587.15,1.758 -64.11,-66.219 -128.56,-132.07 -191.45,-199.34 -143.83,-1.757 -287.89,1.051 -431.72,-0.898 -38.12,-2.262 -61.83,-12.66 -56.05,-56.211 127.34,-10.352 256.29,2.109 383.98,-5.621 68.48,-6.84 131.21,-46.18 151.92,-114.34 22.65,-80.269 -13.52,-176.168 -62.35,-240.777 C 1849.73,56.0898 1725.74,5 1599.45,5.35156 1418.16,6.41016 1237.07,5 1055.98,6.21094 1119.57,75.082 1185.43,141.801 1250.78,208.91 c 145.78,0.5 291.56,-0.859 437.34,0.149 42.5,0.902 84.15,10.043 107.7,48.871 23.52,27.539 -12.15,53.011 -37.77,55.82 -125.94,7.73 -253.28,-3.16 -379.38,4.57 -80.97,6.328 -154.41,62.539 -155.47,148.59 7.58,171.449 157.74,297.039 323.56,305.281 z"
       style="fill:#512873;fill-opacity:1;fill-rule:evenodd;stroke:none"
       transform="matrix(0.13333333,0,0,-0.13333333,0,476)" />
    <path
       id="path9"
       d="m 2173.24,773.238 c 213.24,0.352 426.64,0.352 639.88,-0.148 -65.35,-65.899 -128.9,-133.32 -194.25,-199.18 -62.54,1.051 -125.08,0.86 -187.58,-2.109 -60.78,-189.18 -121.72,-378.52 -186.21,-566.28928 -65.31,0.34766 -130.47,0.1875 -195.67,0.1875 64.3,189.14078 124.89,379.38278 188.13,568.71078 -85.55,-0.148 -171.06,-0.5 -256.45,-0.5 63.44,66.711 125.59,135.391 192.15,199.328 z"
       style="fill:#512873;fill-opacity:1;fill-rule:evenodd;stroke:none"
       transform="matrix(0.13333333,0,0,-0.13333333,0,476)" />
    <path
       id="path10"
       d="m 3103.28,759.531 c 41.99,-29.14 47.77,-71.293 60.08,-117.301 28.28,-120.859 61.84,-240.82 86.76,-362.39 C 3221.84,188.012 3191.45,96.8398 3160.7,5.69922 2967.34,6.05078 2773.95,5.35156 2580.59,6.05078 2642.93,75.4297 2705.82,144.262 2769.92,211.879 c 85.7,-1.758 171.6,-0.859 257.31,-1.219 -25.28,89.77 -48.48,180.039 -71.49,270.469 C 2811.37,320.98 2663.48,163.59 2516.84,5.51172 c -79.77,0.53906 -159.34,0 -239.07,0.34766 C 2446.56,197.5 2623.24,382.621 2794.84,571.949 c 56.92,57.621 108.56,130.321 176.72,174.262 38.99,22.809 90.98,44.609 131.72,13.32 z"
       style="fill:#512873;fill-opacity:1;fill-rule:evenodd;stroke:none"
       transform="matrix(0.13333333,0,0,-0.13333333,0,476)" />
    <path
       id="path11"
       d="m 3543.63,773.09 c 130.67,0.5 261.33,0.859 391.84,-0.199 72.73,-1.411 144.22,-19.84 190.74,-79.571 43.59,-55.308 40.78,-129.961 23.56,-194.769 C 4101.45,329.57 3934.26,206.988 3760.2,201.879 3646.37,199.059 3532.38,204.18 3418.55,199.77 3399.41,134.609 3377.66,70.3086 3355.86,6.05078 3290.7,5.69922 3225.7,5.69922 3160.7,5.69922 c 30.75,91.14058 61.14,182.31278 89.42,274.14078 13.86,40.082 27.93,79.93 40.93,120.16 179.5,2.461 359.34,-1.051 538.87,1.41 67.27,-0.859 138.24,65.5 123.48,134.879 -23.01,41.641 -64.3,36.563 -105.55,38.481 -167.42,-1.059 -334.8,-0.36 -502.19,-0.711 66.76,65.511 129.11,135.781 197.97,199.031 z"
       style="fill:#7d569e;fill-opacity:1;fill-rule:evenodd;stroke:none"
       transform="matrix(0.13333333,0,0,-0.13333333,0,476)" />
    <path
       id="path12"
       d="m 4567.97,775.898 c 58.83,-1.949 90.27,-45.16 102.03,-98.398 56.21,-223.551 110.51,-448.051 167.07,-671.64062 -246.8,0.1914 -493.59,-0.69922 -740.35,0.55078 61.48,69.37114 125.43,136.78884 188.63,204.76184 86.06,-0.512 172.15,-0.512 258.2,0 -25.31,88.207 -48.82,176.719 -69.72,265.937 C 4361.25,366.09 4258.67,244.73 4149.06,130.738 4109.38,91.7617 4073.71,37.1094 4027.5,7.26953 3949.34,2.33984 3870.51,7.42188 3792.15,6.05078 3993.63,228.398 4198.4,447.77 4400.23,669.801 c 46.88,51.097 96.41,95.199 167.74,106.097 z"
       style="fill:#7d569e;fill-opacity:1;fill-rule:evenodd;stroke:none"
       transform="matrix(0.13333333,0,0,-0.13333333,0,476)" />
    <path
       id="path13"
       d="m 4740.62,773.238 c 83.44,0.352 167.04,0.203 250.47,0.203 45.12,-102.781 87.82,-206.41 132.78,-309.14 105.23,104.14 211.29,207.969 318.63,309.648 83.44,-1.058 166.68,0 249.92,-1.058 C 5529.45,623.09 5371.52,467.809 5209.06,317.461 5186.05,294.801 5155.66,271.25 5145.12,240 5117.19,162.539 5095.43,82.9688 5066.8,5.69922 c -65,0 -129.81,0 -194.81,0.35156 24.61,79.37892 53.95,157.53922 77.31,237.46922 9.84,27.378 -7.23,54.101 -16.33,79.57 -65.2,149.64 -126.29,300.859 -192.35,450.148 z"
       style="fill:#7d569e;fill-opacity:1;fill-rule:evenodd;stroke:none"
       transform="matrix(0.13333333,0,0,-0.13333333,0,476)" />
  </g>
</svg>
