<svg xmlns="http://www.w3.org/2000/svg" height="800" width="1200" viewBox="0 0 379 439"><path d="M0 0h378.55c-.003 126.516.005 253.031-.003 379.547-126.18.008-252.367 0-378.547.004V0m327.758 274.531a62.86 62.86 0 00-.004 2.422c1.808-.012 3.625-.004 5.433-.004.012 5.035 0 10.07.008 15.11.989-.009 1.977-.009 2.965-.005 0-5.035-.004-10.07.004-15.105 1.813 0 3.633-.004 5.445 0-.004-.805-.004-1.605 0-2.41-4.617-.008-9.234.008-13.851-.008m17.305.004c-.012 5.84-.012 11.68 0 17.52h2.957c.02-4.786-.032-9.567.03-14.352 1.981 4.742 3.77 9.562 5.661 14.34.633.004 1.27.004 1.914.004 1.906-4.797 3.723-9.63 5.68-14.403.035 4.801.008 9.606.02 14.41.98-.004 1.964-.004 2.948.008.036-5.84.004-11.68.016-17.519-1.5-.012-3-.008-4.496 0-1.668 4.387-3.371 8.762-5.063 13.14-1.703-4.386-3.437-8.761-5.14-13.148-1.512.004-3.024 0-4.527 0m-300.13 18.676c-7.367.297-14.785 3.637-19.171 9.71-3.774 5.09-5.282 11.56-5.25 17.821-.114 5.895 1.074 11.965 4.222 17.016 2.551 4.133 6.457 7.375 10.95 9.195 5.414 2.2 11.484 2.594 17.187 1.418 5.29-1.09 10.297-3.863 13.742-8.07 3.11-3.723 4.91-8.403 5.645-13.168.793-5.535.582-11.285-1.051-16.653-1.531-5.03-4.637-9.613-8.953-12.64-4.996-3.547-11.266-4.953-17.32-4.63m50.421 7.474a804.69 804.69 0 000-6.137c-4.41 0-8.82-.024-13.23.015.023 17.641.004 35.282.012 52.922 4.726.02 9.453 0 14.18.012.023-11.71-.028-23.426.027-35.133.578-1.722 2.156-2.969 3.73-3.785 3.613-1.719 7.707-1.867 11.633-1.902 0-4.375-.004-8.75.004-13.121-6.187-.578-12.371 2.484-16.355 7.129m34.703-5.696c-4.813 1.54-9.106 4.664-12.004 8.82 3.129 1.833 6.289 3.614 9.441 5.403 2.688-3.336 6.66-5.637 10.957-5.977 3.074-.265 6.758-.109 8.953 2.387 1.555 1.785 1.102 4.281 1.16 6.45-7.218.85-14.503 2.038-21.23 4.902-3.797 1.648-7.5 4.011-9.742 7.597-2.504 4.024-2.758 9.168-1.363 13.625 1.132 3.676 3.859 6.817 7.367 8.39 4.02 1.872 8.617 1.77 12.902 1.087 4.274-.715 8.367-2.383 11.988-4.762.403 1.527.805 3.05 1.211 4.582 4.137-.004 8.274 0 12.41 0-.152-12.234-.054-24.476-.07-36.71.246-3.606-.433-7.423-2.695-10.325-2.942-3.926-7.813-5.785-12.504-6.535-5.578-.801-11.383-.66-16.781 1.066m69.05-1.136c-4.957 1.023-9.296 3.812-13.343 6.734-.407-2.07-.875-4.133-1.242-6.207-3.864.527-7.73 1.062-11.594 1.605-.008 17.145 0 34.285 0 51.426 4.62.004 9.238 0 13.863 0v-37.902c3.274-2.727 7.02-5.211 11.34-5.75 2.176-.242 4.73-.114 6.316 1.61 1.567 1.831 1.817 4.374 1.89 6.69.009 11.786.005 23.567.005 35.352 4.648.008 9.297 0 13.945 0v-37.605c-.054-2.516-.398-5.051-1.265-7.418-1.13-3.184-3.47-5.938-6.559-7.336-4.152-1.887-8.934-2.04-13.355-1.2m36.23 7.704c-4.25 5.754-5.738 13.109-5.602 20.156.06 6.43 1.485 13.16 5.56 18.285 3.23 4.168 8.265 6.738 13.468 7.285 3.797.363 7.855.203 11.25-1.73 2.36-1.317 4.02-3.528 5.414-5.79.11 2.227.031 4.458.055 6.684-.09 2.95-.52 6.16-2.559 8.45-1.86 2.066-4.758 2.796-7.445 2.804-2.825.04-5.875-.058-8.32-1.648-1.22-.785-1.844-2.16-2.204-3.512-4.586.738-9.168 1.48-13.754 2.219.832 4.281 3.817 7.914 7.594 9.969 5.899 3.28 12.91 3.644 19.488 3.011 5.703-.57 11.727-2.195 15.793-6.488 3.645-3.852 4.785-9.336 4.868-14.484v-52.38c-3.934.024-7.868-.058-11.797.044-.305 1.949-.688 3.89-1.028 5.84-1.218-2.528-3.593-4.282-6.14-5.313-3.348-1.371-7.04-1.695-10.63-1.488-5.577.422-10.75 3.582-14.011 8.086m57.992-.399c-3.828 4.559-5.535 10.531-5.96 16.387-.41 6.39.187 13.055 3.105 18.848 2.261 4.515 6.144 8.214 10.844 10.082 6.035 2.433 12.808 2.41 19.097 1.078 6.156-1.348 11.95-5.047 15.082-10.625a1450.91 1450.91 0 01-10.234-5.684c-1.528 2.192-3.387 4.242-5.797 5.457-2.715 1.383-5.883 1.559-8.848 1.13-2.87-.419-5.586-2-7.152-4.474-1.934-3.039-2.465-6.75-2.488-10.293 11.672.008 23.347 0 35.027.004.395-4.66-.05-9.41-1.39-13.89-1.473-4.86-4.465-9.36-8.786-12.106-5.297-3.43-11.914-4.171-18.062-3.449-5.504.664-10.88 3.203-14.438 7.535zm0 0" fill="#f60"/><path d="M304.219 305.977c1.687-1.91 4.203-2.938 6.715-3.09 3.203-.239 6.699.66 8.886 3.148 1.934 2.152 2.578 5.13 2.653 7.953-7.094-.004-14.188.008-21.282-.008.23-2.867 1.067-5.824 3.028-8.004zm-51.879-2.489c3.265-.601 6.82.45 9.133 2.867 2.718 2.782 3.824 6.739 4.058 10.54.11 2.785-.008 5.59-.449 8.343-.496 2.903-1.473 5.871-3.566 8.016-1.907 1.941-4.68 2.828-7.356 2.762-2.492.078-5.117-.715-6.844-2.594-2.32-2.395-3.09-5.809-3.464-9.02-.305-3.27-.395-6.578.035-9.84.406-2.867 1.293-5.78 3.207-8.015a9.041 9.041 0 015.246-3.059zm-207.977 1.68c3.383-.504 7.168.055 9.817 2.379 2.488 2.144 3.699 5.383 4.242 8.547.574 3.558.55 7.222-.14 10.758-.634 3.105-2.016 6.238-4.594 8.195-2.876 2.14-6.731 2.523-10.16 1.816-2.801-.57-5.29-2.394-6.72-4.87-2.062-3.587-2.515-7.845-2.43-11.915.134-3.656.778-7.46 2.86-10.547 1.614-2.398 4.27-3.988 7.125-4.363zm91.36 18.282c3.953-1.637 8.214-2.364 12.437-2.9.016 4.126-.008 8.255.012 12.384-3.531 3.171-8.035 5.664-12.89 5.574-1.63.043-3.243-.653-4.352-1.836-2.114-2.379-2.418-6.145-.782-8.863 1.22-2.106 3.403-3.414 5.575-4.36zm0 0" fill="#f60"/><path d="M378.55 0h.321v379.871H0v-.32c126.18-.004 252.367.004 378.547-.004.008-126.516 0-253.031.004-379.547zm0 0" fill="#fdd9bd"/><path d="M327.758 274.531c4.617.016 9.234 0 13.851.008-.004.805-.004 1.606 0 2.41-1.812-.004-3.632 0-5.445 0-.008 5.036-.004 10.07-.004 15.106-.988-.004-1.977-.004-2.965.004-.008-5.04.004-10.074-.008-15.11-1.808 0-3.625-.007-5.433.005a62.458 62.458 0 01.004-2.422zm17.305.004c1.503 0 3.015.004 4.527 0 1.703 4.387 3.437 8.762 5.14 13.149 1.692-4.38 3.395-8.754 5.063-13.141 1.496-.008 2.996-.012 4.496 0-.012 5.84.02 11.68-.016 17.52a188.4 188.4 0 00-2.949-.008c-.011-4.805.016-9.61-.02-14.41-1.956 4.773-3.773 9.605-5.679 14.402-.644 0-1.281 0-1.914-.004-1.89-4.778-3.68-9.598-5.66-14.34-.063 4.785-.012 9.566-.031 14.351h-2.957c-.012-5.84-.012-11.68 0-17.52zM44.934 293.21c6.054-.323 12.324 1.083 17.32 4.63 4.316 3.027 7.422 7.61 8.953 12.64 1.633 5.368 1.844 11.118 1.05 16.653-.734 4.765-2.534 9.445-5.644 13.168-3.445 4.207-8.453 6.98-13.742 8.07-5.703 1.176-11.773.781-17.187-1.418-4.493-1.82-8.399-5.062-10.95-9.195-3.148-5.051-4.336-11.121-4.222-17.016-.032-6.262 1.476-12.73 5.25-17.82 4.386-6.074 11.804-9.414 19.172-9.711m-.57 11.957c-2.856.375-5.512 1.965-7.126 4.363-2.082 3.086-2.726 6.89-2.86 10.547-.085 4.07.368 8.328 2.43 11.914 1.43 2.477 3.919 4.301 6.72 4.871 3.429.707 7.285.324 10.16-1.816 2.578-1.957 3.96-5.09 4.593-8.195.692-3.536.715-7.2.14-10.758-.542-3.164-1.753-6.403-4.241-8.547-2.649-2.324-6.434-2.883-9.817-2.379zm50.991-4.484c3.985-4.645 10.168-7.707 16.356-7.13-.008 4.372-.004 8.747-.004 13.122-3.926.035-8.02.183-11.633 1.902-1.574.817-3.152 2.063-3.73 3.785-.055 11.707-.004 23.422-.028 35.133-4.726-.012-9.453.008-14.18-.012-.007-17.64.012-35.28-.011-52.921 4.41-.04 8.82-.016 13.23-.016.008 2.043.008 4.09 0 6.137zm34.704-5.696c5.398-1.726 11.203-1.867 16.78-1.066 4.692.75 9.563 2.61 12.505 6.535 2.261 2.902 2.941 6.719 2.695 10.324.016 12.235-.082 24.477.07 36.711-4.136 0-8.273-.004-12.41 0-.406-1.531-.808-3.055-1.21-4.582-3.622 2.38-7.716 4.047-11.989 4.762-4.285.683-8.883.785-12.902-1.086-3.508-1.574-6.235-4.715-7.368-8.39-1.394-4.458-1.14-9.602 1.364-13.626 2.242-3.586 5.945-5.949 9.742-7.597 6.726-2.864 14.012-4.051 21.23-4.903-.058-2.168.395-4.664-1.16-6.449-2.195-2.496-5.879-2.652-8.953-2.387-4.297.34-8.27 2.641-10.957 5.977-3.152-1.79-6.312-3.57-9.441-5.402 2.898-4.157 7.191-7.282 12.004-8.82m5.664 28.46c-2.172.946-4.356 2.254-5.575 4.36-1.636 2.718-1.332 6.484.782 8.863 1.11 1.183 2.722 1.879 4.351 1.836 4.856.09 9.36-2.403 12.89-5.574-.019-4.13.005-8.258-.01-12.383-4.223.535-8.485 1.261-12.438 2.898zm63.387-29.597c4.421-.84 9.202-.688 13.355 1.199 3.09 1.398 5.43 4.152 6.558 7.336.868 2.367 1.211 4.902 1.266 7.418v37.605c-4.648 0-9.297.008-13.945 0 0-11.785.004-23.566-.004-35.351-.074-2.317-.324-4.86-1.89-6.692-1.587-1.722-4.141-1.851-6.317-1.61-4.32.54-8.067 3.024-11.34 5.75v37.903c-4.625 0-9.242.004-13.863 0 0-17.14-.008-34.281 0-51.426 3.863-.543 7.73-1.078 11.593-1.605.368 2.074.836 4.137 1.243 6.207 4.046-2.922 8.386-5.711 13.343-6.734zm36.23 7.703c3.262-4.504 8.433-7.664 14.012-8.086 3.59-.207 7.28.117 10.628 1.488 2.547 1.031 4.922 2.785 6.141 5.313.34-1.95.723-3.891 1.027-5.84 3.93-.102 7.864-.02 11.797-.043v52.379c-.082 5.148-1.222 10.632-4.867 14.484-4.066 4.293-10.09 5.918-15.793 6.488-6.578.633-13.59.27-19.488-3.011-3.777-2.055-6.762-5.688-7.594-9.97 4.586-.738 9.168-1.48 13.754-2.218.36 1.352.984 2.727 2.203 3.512 2.445 1.59 5.496 1.687 8.32 1.648 2.688-.008 5.586-.738 7.446-2.805 2.039-2.289 2.469-5.5 2.558-8.449-.023-2.226.055-4.457-.054-6.683-1.395 2.261-3.055 4.472-5.414 5.789-3.395 1.933-7.454 2.093-11.25 1.73-5.204-.547-10.239-3.117-13.47-7.285-4.073-5.125-5.5-11.855-5.558-18.285-.136-7.047 1.352-14.402 5.602-20.156m17 1.933a9.041 9.041 0 00-5.246 3.059c-1.914 2.234-2.801 5.148-3.207 8.015-.43 3.262-.34 6.57-.036 9.84.375 3.211 1.145 6.625 3.465 9.02 1.727 1.879 4.352 2.672 6.844 2.594 2.676.066 5.45-.82 7.356-2.762 2.093-2.145 3.07-5.113 3.566-8.016.441-2.754.559-5.558.45-8.344-.235-3.8-1.34-7.757-4.06-10.539-2.312-2.418-5.867-3.468-9.132-2.867zm40.992-2.332c3.559-4.332 8.934-6.87 14.438-7.535 6.148-.723 12.765.02 18.062 3.45 4.32 2.745 7.313 7.245 8.785 12.105 1.34 4.48 1.785 9.23 1.39 13.89-11.679-.004-23.355.004-35.027-.004.024 3.543.555 7.254 2.489 10.293 1.566 2.473 4.281 4.055 7.152 4.473 2.965.43 6.133.254 8.848-1.129 2.41-1.215 4.27-3.265 5.797-5.457a1450.91 1450.91 0 0010.234 5.684c-3.133 5.578-8.926 9.277-15.082 10.625-6.29 1.332-13.063 1.355-19.098-1.078-4.699-1.868-8.582-5.567-10.843-10.082-2.918-5.793-3.516-12.458-3.106-18.848.426-5.856 2.133-11.828 5.961-16.387m10.887 4.82c-1.961 2.18-2.797 5.137-3.028 8.004 7.094.016 14.188.004 21.282.008-.075-2.824-.72-5.8-2.653-7.953-2.187-2.488-5.683-3.386-8.886-3.148-2.512.152-5.028 1.18-6.715 3.09zm0 0" fill="#fff"/></svg>