<?xml version="1.0" encoding="utf-8"?><svg version="1.1" id="Layer_1" xmlns="http://www.w3.org/2000/svg" xmlns:xlink="http://www.w3.org/1999/xlink" x="0px" y="0px" viewBox="0 0 122.4 122.88" style="enable-background:new 0 0 122.4 122.88" xml:space="preserve"><style type="text/css">.st0{fill:#E63329;} .st1{fill:#FFFFFF;}</style><g><path class="st0" d="M122.4,61.44c0,33.92-27.5,61.44-61.43,61.44c-31.34,0-57.2-23.47-60.97-53.79v-15.3 C3.74,23.7,29.24,0.35,60.26,0h1.41C95.28,0.38,122.4,27.74,122.4,61.44L122.4,61.44z"/><path class="st1" d="M61.45,95.69c-16.87,0.06-34.44-14.34-34.52-37.48c-0.05-15.3,8.21-30.03,18.76-38.76 C55.98,10.94,70.07,5.46,82.85,5.41c1.65,0,3.38,0.14,4.44,0.49C76.11,8.23,67.21,18.64,67.24,30.43c0,0.39,0.04,0.81,0.09,1 c18.7,4.56,27.19,15.85,27.25,31.46C94.62,78.52,82.29,95.63,61.45,95.69L61.45,95.69z"/></g></svg>